PathFileType	4	(X/Y/Z)	/Users/niels/Desktop/University/Third Semester/Perception and Action/Exam/Gymnastics Motion Tracking/Code for Gym Tracking/Analyzed Data/Webcam_Backflip/id1_1_baseline_Sports2D/id1_1_baseline_Sports2D_px_person00.trc
DataRate	CameraRate	NumFrames	NumMarkers	Units	OrigDataRate	OrigDataStartFrame	OrigNumFrames
29.928057553956833	29.928057553956833	7	22	m	29.928057553956833	260	417
Frame#	Time	Hip			RHip			RKnee			RAnkle			RBigToe			RSmallToe			RHeel			LHip			LKnee			LAnkle			LBigToe			LSmallToe			LHeel			Neck			Head			Nose			RShoulder			RElbow			RWrist			LShoulder			LElbow			LWrist		
		X1	Y1	Z1	X2	Y2	Z2	X3	Y3	Z3	X4	Y4	Z4	X5	Y5	Z5	X6	Y6	Z6	X7	Y7	Z7	X8	Y8	Z8	X9	Y9	Z9	X10	Y10	Z10	X11	Y11	Z11	X12	Y12	Z12	X13	Y13	Z13	X14	Y14	Z14	X15	Y15	Z15	X16	Y16	Z16	X17	Y17	Z17	X18	Y18	Z18	X19	Y19	Z19	X20	Y20	Z20	X21	Y21	Z21	X22	Y22	Z22
260	8.6875	0.8836966331135789	-0.5415877235444925	0.0	0.855412709276111	-0.5483254319858327	0.0	0.8295953359305077	-0.7805354681572501	0.0	0.6591269585443192	-0.9492624171874449	0.0	0.6792525486850803	-1.0392965502775053	0.0	0.650763494063227	-1.0350171205672958	0.0	0.6193779681663382	-0.9554009285358503	0.0	0.910766444726837	-0.5481314732289106	0.0	0.9325557480130083	-0.7732832387144527	0.0	0.9155865864636806	-0.9995055259248181	0.0	1.0277662457299144	-1.0383377915009278	0.0	1.0167654833158366	-1.0278519734103129	0.0	0.8942688696226627	-1.033023897507517	0.0	0.917236646162452	-0.18703550171499694	0.0	0.9649419208657295	-0.03812754158679885	0.0	0.9804684858330153	-0.1258719977286338	0.0	0.8533022877191822	-0.23409875574460626	0.0	0.8287909170270746	-0.41370353571100493	0.0	0.8485708258169685	-0.5754527487038353	0.0	0.9331109419312194	-0.24101699040762226	0.0	0.9054768935626081	-0.40289215067311607	0.0	0.9128441471032092	-0.5448928047367582	0.0
261	8.720913461538462	0.896492381026685	-0.5375257124956787	0.0	0.8724724461855065	-0.5450723359152951	0.0	0.867625435899745	-0.7771145731555347	0.0	0.692420410648536	-0.9426374987856517	0.0	0.715850088913628	-1.0369677591236524	0.0	0.6896556557611832	-1.0314842297514062	0.0	0.652261554852955	-0.94903704518503	0.0	0.9220004455516185	-0.5445758317881572	0.0	0.9397521708047633	-0.7703747737255893	0.0	0.9163149423623588	-0.9982187624302614	0.0	1.0270807619275961	-1.0384504095083371	0.0	1.0154488803137665	-1.0270714576583289	0.0	0.893643991133591	-1.0323342092179897	0.0	0.9287244862451763	-0.18524798457434613	0.0	0.9747794407265354	-0.036508909641060246	0.0	0.9913480773194338	-0.12352139175196758	0.0	0.8684290770221966	-0.23215979595066166	0.0	0.8507639426798113	-0.4113034128264024	0.0	0.8780726357464365	-0.5707638683293517	0.0	0.9427491996461063	-0.238576921498883	0.0	0.9232670529743149	-0.40222239583928865	0.0	0.9365981730561884	-0.5440022330597717	0.0
262	8.754326923076922	0.9069328806718688	-0.5336487187740956	0.0	0.8874207513911627	-0.541510343265335	0.0	0.9042779297932559	-0.7734928638259374	0.0	0.7308535716986405	-0.9419486239416056	0.0	0.7643077747254531	-1.0363480768164177	0.0	0.740203655325255	-1.030791743641077	0.0	0.6907628235479553	-0.950988629959541	0.0	0.9311850199219182	-0.5403757005292836	0.0	0.9449918869997163	-0.7678291412536117	0.0	0.9167878619570167	-0.9965039441858711	0.0	1.0270353739125904	-1.038393566018209	0.0	1.0144266829626625	-1.0258571640386636	0.0	0.8928934171461012	-1.0313712888602522	0.0	0.938937682661537	-0.18326546717241465	0.0	0.9837735175319622	-0.034810278831828634	0.0	1.0012639143921291	-0.12128967199414435	0.0	0.882397498380788	-0.22968301255750678	0.0	0.8714301954869498	-0.40889182449023814	0.0	0.9088474677460872	-0.5649526219667436	0.0	0.9512380617753831	-0.23615194608278528	0.0	0.9418136408905977	-0.4011947616059563	0.0	0.9634692147375774	-0.5415610242127331	0.0
263	8.787740384615384	0.9155106942917925	-0.5299019815717925	0.0	0.9004858023113352	-0.5375549610795928	0.0	0.9382914823418738	-0.7697841687147597	0.0	0.7747040294053351	-0.9477782210336853	0.0	0.8231887778044097	-1.0372122596914641	0.0	0.800412894211275	-1.0330092279306198	0.0	0.7352712129062486	-0.9615379400693148	0.0	0.9383322069786454	-0.5353706149589039	0.0	0.9482525374403423	-0.7654375203648237	0.0	0.9168939034845626	-0.9942873445558602	0.0	1.027459689401396	-1.0373713417204982	0.0	1.0137392147175592	-1.0239241604869491	0.0	0.8919137532907506	-1.029993059108819	0.0	0.9481937433074461	-0.18107551959962154	0.0	0.9924305262307809	-0.03306095679377962	0.0	1.0105831759482382	-0.11920959069823477	0.0	0.8954868056816202	-0.22689661629136473	0.0	0.8904281244031215	-0.4062575753068454	0.0	0.9400768246432174	-0.5576487274073484	0.0	0.9590002079117431	-0.23358018487865978	0.0	0.9599989598906943	-0.3991774143484799	0.0	0.9913579298471688	-0.536333549239022	0.0
264	8.821153846153846	0.922849918369822	-0.5263088197456978	0.0	0.9121238534255428	-0.5333381168447122	0.0	0.9694948131535472	-0.7660766016148809	0.0	0.823586929315722	-0.9585677923868139	0.0	0.8897454223378194	-1.0388675794539493	0.0	0.8672801316828816	-1.0373100025488418	0.0	0.7856971659265884	-0.9781944561960849	0.0	0.9436464139992745	-0.5297969331898572	0.0	0.9496898106374217	-0.7632183131533495	0.0	0.9166498484783496	-0.9921193325693356	0.0	1.0277912553437	-1.0350076565867117	0.0	1.0131500932109263	-1.0212810557167205	0.0	0.8908038561920918	-1.0286059547690376	0.0	0.9569906431848282	-0.17883825538610965	0.0	1.0013686417426997	-0.031243595219886365	0.0	1.0196815411618518	-0.11739475223119179	0.0	0.90821989757392	-0.2241969962108114	0.0	0.9080265104046077	-0.4035437754405802	0.0	0.971205599981673	-0.5488719962672274	0.0	0.9663735484803999	-0.23085686483565446	0.0	0.9766365617903875	-0.3961467168555141	0.0	1.0185649402374763	-0.5278929837564545	0.0
265	8.854567307692308	0.9297452378809913	-0.5229616001840192	0.0	0.9229742070087931	-0.5292294676863917	0.0	0.9980762467431298	-0.7625211218356938	0.0	0.8763443530641722	-0.9712658385666173	0.0	0.9598792162931681	-1.0404653017337973	0.0	0.9369231698861811	-1.0422783955440182	0.0	0.8409235767144378	-0.9967742129065065	0.0	0.9475282439478896	-0.5243438920333742	0.0	0.949609770602224	-0.7616115204593934	0.0	0.9162229594508109	-0.9909770440466547	0.0	1.0273660279583254	-1.0317672238831206	0.0	1.0123458968714527	-1.018547569996965	0.0	0.8900311838929548	-1.0280448647587235	0.0	0.9658420857589992	-0.1767942149425226	0.0	1.0109612857432542	-0.029408200591014788	0.0	1.0289734785959688	-0.11601619916075988	0.0	0.9211112066897896	-0.22202209617080146	0.0	0.9247450133748677	-0.4011702821589648	0.0	1.0017942157323128	-0.5391877140402898	0.0	0.9735332954169574	-0.22823167340097572	0.0	0.9912045190600525	-0.3927634097417208	0.0	1.0444381675180943	-0.5169415784820597	0.0
266	8.887980769230769	0.9370216544443212	-0.5200058871184446	0.0	0.9337218242955805	-0.5257149106769746	0.0	1.0237735098779432	-0.7594747410868247	0.0	0.9316898638815764	-0.9828104279688178	0.0	1.0293846795224155	-1.0411030917140438	0.0	1.005812933509162	-1.0463536629354968	0.0	0.8994815697465899	-1.0134216682558588	0.0	0.9505934485786747	-0.5198471134869658	0.0	0.94862398930132	-0.7610785709293816	0.0	0.9157782012929031	-0.9915508060040089	0.0	1.0256681242209613	-1.0288049828988253	0.0	1.0110244059809614	-1.0167436924996176	0.0	0.8900724731079047	-1.028988995964151	0.0	0.9751601057237822	-0.17512542646620244	0.0	1.0212170067471509	-0.027799711306228103	0.0	1.0387731617270302	-0.11523924029869578	0.0	0.934429854360644	-0.22067398724374354	0.0	0.9409027730095203	-0.3994464879503338	0.0	1.0312276464957806	-0.5296010680092696	0.0	0.9806080014881969	-0.22605701772797177	0.0	1.0037959852401477	-0.3897875669977332	0.0	1.0687085682468822	-0.5047762601666355	0.0
